<?xml version="1.0" encoding="UTF-8"?>
<svg width="25px" height="25px" viewBox="0 0 25 25" version="1.1" xmlns="http://www.w3.org/2000/svg" xmlns:xlink="http://www.w3.org/1999/xlink">
    <title>factory</title>
    <defs>
        <filter id="filter-1">
            <feColorMatrix in="SourceGraphic" type="matrix" values="0 0 0 0 1.000000 0 0 0 0 1.000000 0 0 0 0 1.000000 0 0 0 1.000000 0"></feColorMatrix>
        </filter>
    </defs>
    <g id="Page-1" stroke="none" stroke-width="1" fill="none" fill-rule="evenodd" stroke-linejoin="round">
        <g filter="url(#filter-1)" id="factory">
            <g transform="translate(1.562500, 1.562500)">
                <path d="M18.2291667,21.875 L18.2291667,8.75 L13.4895833,11.6666667 L13.4895833,8.75 L8.38541667,11.6666667 L8.38541667,8.75 L3.64583333,11.6666667 M3.64583333,8.75 L0.729166667,8.75 M18.2291667,15.3125 C18.2291667,15.3125 19.0575,15.3125 19.495,15.3125 C19.9988542,15.3125 20.4144792,15.7157292 20.4144792,16.2195833 L20.4144792,21.875 M18.2291667,13.8541667 L19.5664583,13.8541667 C20.5070833,13.8541667 21.8771875,14.3777083 21.872823,16.1823958 L21.872823,21.875 M2.23854167,2.85614583 C2.23854167,2.08760417 1.80614583,1.4284375 1.11854167,1.4284375 L1.11854167,1.4284375 C0.349270833,1.42770833 0,0.9559375 0,0 M1.82291667,0 C2.91666667,0 3.64364583,0.729166667 3.64364583,1.82291667 M15.3125,15.3125 L15.3125,13.8541667 M12.3958333,15.3125 L12.3958333,13.8541667 M9.47916667,15.3125 L9.47916667,13.8541667 M6.5625,15.3125 L6.5625,13.8541667 M9.47697917,21.875 L9.47697917,17.5 L12.3936458,17.5 L12.3936458,21.875" id="Shape" stroke="#000000" stroke-width="0.525" stroke-linecap="round"></path>
                <polyline id="Path" stroke="#000000" stroke-width="0.525" points="21.875 21.875 0.729166667 21.875 0.729166667 21.875 0.729166667 3.64583333 3.64583333 3.64583333 3.64583333 21.875"></polyline>
            </g>
        </g>
    </g>
</svg>